<svg version="1.1" xmlns="http://www.w3.org/2000/svg" style="display: block;" viewBox="0 0 2048 2048" width="1024" height="1024" preserveAspectRatio="none">
<path transform="translate(0,0)" fill="rgb(230,230,230)" d="M 0 0 L 2048 0 L 2048 2048 L 0 2048 L 0 0 z"/>
<path transform="translate(0,0)" fill="rgb(0,0,0)" d="M 1016.18 582.153 C 1026.69 581.349 1034.41 581.622 1044.35 586.287 C 1055.87 591.648 1064.65 601.549 1068.6 613.628 C 1072.63 625.672 1071.46 638.85 1065.39 650.002 C 1058.24 663.061 1047.47 669.998 1033.65 674.165 C 1032.18 705.132 1034.12 744.371 1033.53 776.758 C 1067.25 782.277 1077.9 787.153 1105.27 806.566 C 1112.5 800.352 1124.77 786.852 1131.74 779.627 C 1146.18 764.948 1160.42 750.075 1174.46 735.014 C 1167.92 722.299 1165.21 709.854 1169.62 695.818 C 1173.49 683.619 1182.23 673.563 1193.77 668.035 C 1205.26 662.482 1218.51 661.802 1230.51 666.15 C 1242.42 670.306 1252.03 679.275 1257 690.866 C 1262.11 702.706 1261.88 715.285 1256.98 727.169 C 1252.09 739.01 1242.63 748.373 1230.74 753.131 C 1215.55 759.034 1202.49 756.051 1188.49 749.606 C 1161.08 774.086 1137.34 805.219 1109.93 829.738 C 1105.64 833.576 1092.22 822.744 1089.31 820.231 C 1058.55 793.662 1010.94 789.704 975.113 807.963 C 949.448 820.74 930.08 843.401 921.456 870.743 C 912.893 898.729 915.744 928.965 929.384 954.858 C 943.939 982.303 970.057 1001.75 1000.52 1007.84 C 1010.06 1009.7 1023.03 1009.83 1031.14 1012.36 C 1035.98 1018.48 1033.79 1115.94 1033.84 1131.97 C 1104.92 1151.51 1063.45 1247.94 1004.33 1220.74 C 992.686 1215.44 983.72 1205.61 979.521 1193.53 C 969.849 1165.48 985.639 1139.8 1013.49 1131.86 C 1014.82 1101.78 1013.71 1060.45 1013.61 1029.4 C 983.41 1027.12 962.75 1017.64 939.262 999.064 C 932.322 1005.82 925.02 1013.88 918.305 1020.97 C 903.29 1036.01 888.802 1051.42 873.646 1066.38 C 874.018 1067.08 874.381 1067.79 874.734 1068.5 C 880.751 1080.66 881.918 1093.78 877.262 1106.63 C 872.878 1118.55 863.898 1128.22 852.33 1133.47 C 840.691 1138.69 827.434 1138.96 815.593 1134.22 C 804.409 1129.85 795.52 1121.06 791.021 1109.93 C 786.016 1098.12 786.03 1084.78 791.059 1072.98 C 803.378 1043.85 833.495 1039.71 859.931 1052.19 C 881.986 1030.19 903.702 1007.86 925.071 985.192 C 907.517 963.397 899.983 939.053 896.738 911.785 C 863.23 911.222 828.308 911.734 794.687 911.74 C 794.02 913.998 793.293 916.239 792.508 918.459 C 788.324 930.03 779.444 939.861 768.13 944.814 C 756.44 949.961 743.16 950.135 731.341 945.294 C 719.564 940.31 710.299 930.782 705.647 918.87 C 683.463 862.238 774.037 822.563 795.501 892.648 L 896.685 892.416 C 901.763 862.195 907.916 844.486 927.409 820.36 C 907.096 798.631 879.953 770.265 858.396 749.825 C 857.001 750.477 855.595 751.104 854.178 751.707 C 841.221 757.18 828.31 758.329 815.128 752.635 C 803.49 747.607 794.472 737.961 790.237 726.012 C 785.898 713.793 786.608 700.349 792.21 688.655 C 797.365 677.97 806.606 669.812 817.847 666.022 C 829.954 661.779 843.266 662.656 854.712 668.449 C 881.1 681.515 885.935 710.664 873.075 735.233 C 896.09 758.948 918.505 782.602 941.796 806.075 C 963.431 788.48 985.859 780.354 1013.34 777.488 L 1014.09 674.824 C 996.988 668.503 983.529 658.971 978.446 640.297 C 975.148 628.054 976.96 614.997 983.467 604.115 C 991.31 591.147 1002.11 585.627 1016.18 582.153 z"/>
<path transform="translate(0,0)" fill="rgb(230,230,230)" d="M 1017.47 1152.36 C 1031.65 1148.69 1046.11 1157.28 1049.67 1171.49 C 1053.23 1185.69 1044.54 1200.08 1030.31 1203.54 C 1016.22 1206.96 1002.01 1198.38 998.489 1184.32 C 994.963 1170.26 1003.44 1155.99 1017.47 1152.36 z"/>
<path transform="translate(0,0)" fill="rgb(230,230,230)" d="M 1019.43 602.344 C 1033.68 599.963 1047.19 609.518 1049.68 623.749 C 1052.18 637.979 1042.74 651.564 1028.53 654.181 C 1014.15 656.829 1000.37 647.251 997.846 632.852 C 995.317 618.453 1005.01 604.753 1019.43 602.344 z"/>
<path transform="translate(0,0)" fill="rgb(230,230,230)" d="M 743.797 876.544 C 752.973 874.558 762.507 877.681 768.729 884.712 C 774.952 891.742 776.894 901.584 773.808 910.452 C 770.723 919.319 763.09 925.829 753.847 927.478 C 739.914 929.963 726.557 920.831 723.817 906.945 C 721.077 893.059 729.963 879.538 743.797 876.544 z"/>
<path transform="translate(0,0)" fill="rgb(230,230,230)" d="M 1207.38 684.399 C 1221.19 680.913 1235.23 689.203 1238.85 702.979 C 1242.46 716.755 1234.3 730.87 1220.56 734.613 C 1206.64 738.405 1192.29 730.113 1188.63 716.155 C 1184.97 702.197 1193.39 687.931 1207.38 684.399 z"/>
<path transform="translate(0,0)" fill="rgb(230,230,230)" d="M 829.194 684.534 C 843.175 682.02 856.557 691.283 859.127 705.254 C 861.698 719.225 852.49 732.644 838.53 735.272 C 824.489 737.915 810.974 728.642 808.388 714.59 C 805.803 700.538 815.132 687.061 829.194 684.534 z"/>
<path transform="translate(0,0)" fill="rgb(230,230,230)" d="M 827.644 1066.51 C 836.638 1064.39 846.079 1067.28 852.335 1074.09 C 858.591 1080.89 860.69 1090.54 857.823 1099.32 C 854.957 1108.11 847.572 1114.67 838.508 1116.47 C 824.832 1119.19 811.497 1110.45 808.534 1096.83 C 805.571 1083.2 814.072 1069.71 827.644 1066.51 z"/>
<path transform="translate(0,0)" fill="rgb(0,0,0)" d="M 1014.61 842.205 C 1050.94 839.51 1075.77 857.249 1085.6 892.256 C 1136.64 893.656 1201.15 893.496 1251.67 892.308 C 1259.84 865.625 1285.04 848.505 1311.29 857.202 C 1368.25 876.067 1346.24 965.337 1280.9 945.548 C 1280.14 945.2 1279.39 944.841 1278.64 944.471 C 1263.29 936.808 1257.28 927.439 1252.1 911.932 C 1197.82 910.914 1140.3 911.94 1085.79 912.043 C 1083.74 921.248 1081.22 929.102 1076.17 937.131 C 1067.29 951.255 1053.12 961.224 1036.82 964.801 C 1020.38 968.348 1003.36 965.612 989.254 956.308 C 975.151 947.145 965.382 932.641 962.191 916.128 C 958.999 899.45 962.604 882.188 972.205 868.181 C 982.379 853.564 997.342 845.324 1014.61 842.205 z"/>
<path transform="translate(0,0)" fill="rgb(230,230,230)" d="M 1016.78 862.336 C 1039.82 858.586 1061.55 874.204 1065.33 897.239 C 1069.12 920.274 1053.54 942.026 1030.51 945.851 C 1007.43 949.686 985.615 934.06 981.819 910.971 C 978.022 887.882 993.684 866.095 1016.78 862.336 z"/>
<path transform="translate(0,0)" fill="rgb(230,230,230)" d="M 1292.74 876.394 C 1306.89 873.77 1320.5 883.074 1323.19 897.212 C 1325.88 911.349 1316.64 925.005 1302.52 927.765 C 1288.3 930.544 1274.53 921.228 1271.82 906.994 C 1269.11 892.76 1278.49 879.036 1292.74 876.394 z"/>
<path transform="translate(0,0)" fill="rgb(0,0,0)" d="M 1107.37 976.95 C 1117.12 977.631 1131.96 996.022 1139.26 1003.54 C 1155.06 1020.09 1171.11 1036.4 1187.4 1052.47 C 1195.72 1047.94 1203.94 1045.07 1213.57 1045.02 C 1226.3 1044.99 1238.5 1050.1 1247.41 1059.18 C 1256.29 1068.13 1261.04 1080.37 1260.51 1092.97 C 1259.9 1107.59 1253.62 1117.3 1243.54 1126.98 C 1230.05 1137.17 1215.24 1140.95 1198.83 1135.29 C 1186.94 1131.12 1177.29 1122.24 1172.14 1110.73 C 1165.12 1095.13 1167.35 1082.07 1173.14 1067.06 C 1149.59 1042.31 1124.77 1018.13 1101.36 993.18 C 1094.51 985.873 1101.19 980.763 1107.37 976.95 z"/>
<path transform="translate(0,0)" fill="rgb(230,230,230)" d="M 1212.12 1065.52 C 1226.22 1064.5 1238.53 1075 1239.73 1089.09 C 1240.93 1103.18 1230.57 1115.61 1216.5 1116.98 C 1207.24 1117.88 1198.22 1113.74 1192.87 1106.13 C 1187.52 1098.52 1186.68 1088.62 1190.66 1080.22 C 1194.65 1071.81 1202.84 1066.2 1212.12 1065.52 z"/>
<path transform="translate(0,0)" fill="rgb(0,0,0)" d="M 1357.03 1318.39 C 1367.9 1317.1 1376.73 1315.89 1376 1331.59 C 1375.6 1340.18 1375.26 1348.23 1375.27 1356.82 C 1414.9 1322.82 1448.66 1383.3 1420.18 1422.39 C 1413.17 1428.9 1404.33 1433.61 1394.55 1432.42 C 1386.73 1431.48 1382.66 1426.19 1375.48 1424.02 C 1374.84 1425.33 1373.02 1429.84 1371.97 1430.2 C 1368.28 1431.62 1355.79 1431.58 1355.6 1426.04 C 1354.44 1391.15 1354.68 1355.87 1355.34 1320.96 C 1355.9 1320.1 1356.47 1319.25 1357.03 1318.39 z"/>
<path transform="translate(0,0)" fill="rgb(230,230,230)" d="M 1386.9 1365.06 C 1414.9 1361.74 1417.16 1400.96 1398.34 1413.4 C 1387.93 1415.78 1383.83 1412.12 1377.4 1404.54 C 1374.77 1389.83 1373.03 1374.44 1386.9 1365.06 z"/>
<path transform="translate(0,0)" fill="rgb(0,0,0)" d="M 622.168 1319.32 C 631.886 1319.11 645.298 1319.62 655.691 1318.95 C 696.826 1316.29 710.881 1356.38 685.595 1384.45 C 679.42 1391.31 668.214 1392.98 658.486 1393.73 L 641.549 1393.76 C 640.833 1405.08 641.42 1418.15 640.82 1430.2 C 636.021 1430.68 621.317 1433.36 620.775 1426.16 C 618.931 1401.67 620.159 1376.7 619.78 1352.1 C 619.671 1345.05 618.788 1324.8 622.168 1319.32 z"/>
<path transform="translate(0,0)" fill="rgb(230,230,230)" d="M 645.631 1337.45 C 654.973 1337.27 663.144 1336.47 670.734 1343.07 C 680.596 1351.65 676.294 1365.42 667.212 1372.53 C 658.093 1375.47 651.006 1374.9 641.485 1374.8 C 641.089 1367.31 639.555 1344.09 642.234 1338.33 L 645.631 1337.45 z"/>
<path transform="translate(0,0)" fill="rgb(0,0,0)" d="M 799.322 1347.25 C 819.039 1346.28 837.572 1353.73 842.63 1374.92 C 849.16 1402.26 840.603 1425.51 811.198 1432.36 C 768.71 1437.25 753.647 1395.09 772.659 1362.19 C 777.964 1353.01 789.18 1349.05 799.322 1347.25 z"/>
<path transform="translate(0,0)" fill="rgb(230,230,230)" d="M 802.406 1364.18 C 830.415 1365.08 829.781 1408.59 807.156 1415.1 C 784.562 1413.94 781.555 1390.43 789.629 1372.83 C 792.079 1367.5 796.866 1365.43 802.406 1364.18 z"/>
<path transform="translate(0,0)" fill="rgb(0,0,0)" d="M 1160.9 1319.32 C 1166.55 1318.99 1173 1318.09 1178.03 1320.47 C 1180.81 1325.69 1179.79 1356.66 1179.88 1365.16 C 1193.97 1365.02 1208.07 1365 1222.16 1365.11 C 1222.03 1354.36 1218.88 1325.37 1227.24 1319.24 C 1230.21 1318.91 1242.86 1317.85 1242.84 1322.04 C 1242.78 1336.74 1246.25 1422.27 1241.44 1429.83 C 1235.74 1430.76 1228.94 1432.25 1223.92 1429.29 C 1220.94 1422.66 1221.93 1394.02 1221.96 1384.79 C 1207.91 1384.56 1193.42 1384.72 1179.34 1384.69 C 1179.15 1395.31 1183.89 1426.89 1172.45 1430.6 C 1168.34 1431.95 1163.85 1431.55 1160.05 1429.47 C 1157.41 1424.82 1158.24 1385.21 1158.27 1376.31 C 1158.31 1366.73 1156.84 1324.18 1160.9 1319.32 z"/>
<path transform="translate(0,0)" fill="rgb(0,0,0)" d="M 931.796 1347.32 C 962.115 1345.36 970.7 1368.78 969.794 1394.63 C 955.577 1396.71 926.716 1393.67 918.394 1396.4 C 916.13 1401.92 921.945 1410.06 926.594 1412.73 C 938.757 1419.7 952.1 1412.16 963.955 1409.46 L 964.972 1409.23 C 972.354 1424.1 961.43 1428.48 949.045 1431.42 C 925.741 1436.94 900.636 1426.95 897.243 1400.89 C 893.674 1373.48 902.041 1351.93 931.796 1347.32 z"/>
<path transform="translate(0,0)" fill="rgb(230,230,230)" d="M 933.647 1363.15 C 947.541 1364.42 948.553 1370.32 951.239 1382.72 L 935.566 1382.88 C 928.282 1382.91 923.822 1382.78 916.595 1382.05 C 920.301 1370.45 921.317 1365.84 933.647 1363.15 z"/>
<path transform="translate(0,0)" fill="rgb(0,0,0)" d="M 1265.97 1349.13 C 1268.85 1349.01 1279.41 1348.33 1281.39 1350.06 C 1291.11 1358.55 1275.66 1411.57 1293.29 1413.91 C 1337.74 1419.79 1292.28 1334.83 1333.2 1349.92 C 1336.5 1354.47 1335.28 1371.23 1335.22 1377.75 C 1335.32 1388.78 1342.59 1456.29 1316.15 1424.03 L 1315.2 1422.85 C 1296.02 1434.09 1272.45 1439.73 1265.64 1412.28 C 1263.6 1404.04 1262.6 1354.44 1265.97 1349.13 z"/>
<path transform="translate(0,0)" fill="rgb(0,0,0)" d="M 1065.78 1327.23 C 1071.59 1326.86 1077.15 1327.01 1082.97 1327.08 C 1083.53 1333.83 1083.57 1342.05 1083.77 1348.93 C 1090.91 1348.83 1098.13 1347.64 1103.74 1351.38 C 1107.33 1356.33 1107.25 1360.73 1103.22 1365.32 C 1098.23 1367.59 1089.62 1366.61 1083.63 1366.5 C 1083.77 1378.69 1082.49 1396.84 1084.65 1408.31 C 1086.83 1419.89 1097.55 1410.36 1105.42 1414.48 C 1108.05 1418.53 1107.32 1419.84 1107.66 1425.09 C 1101.3 1435.46 1069.8 1435.41 1065.02 1418.18 C 1062.03 1407.36 1064.95 1371.53 1061.83 1366.83 L 1060.86 1366.74 C 1058.75 1366.54 1054.19 1366.29 1053.19 1364.41 C 1051.58 1361.4 1051.56 1354.9 1052.64 1351.75 C 1055.87 1349.45 1059.96 1349.26 1063.96 1348.62 C 1063.63 1341.79 1062.2 1332.68 1065.78 1327.23 z"/>
<path transform="translate(0,0)" fill="rgb(0,0,0)" d="M 1015.04 1347.23 C 1022.84 1346.75 1029.26 1347.4 1036.3 1351.23 C 1042.26 1354.47 1051.42 1361.41 1044.64 1368.73 C 1044.35 1369.08 1041.64 1371.19 1041.5 1371.13 C 1032.77 1367.44 1024.1 1362.96 1014.4 1365.96 C 1001.07 1370.09 1002.47 1388.94 1004.04 1399.93 C 1004.73 1404.71 1009.04 1410.62 1013.32 1412.97 C 1023.88 1418.78 1034.67 1410.86 1044.77 1408.51 C 1050.56 1423.68 1044.19 1428.16 1029.35 1431.61 C 1007.95 1436.43 987.042 1424.74 983.281 1402.44 C 978.774 1375.71 985.836 1352.56 1015.04 1347.23 z"/>
<path transform="translate(0,0)" fill="rgb(0,0,0)" d="M 860.89 1349.27 C 867.578 1348.88 873.234 1349.1 879.918 1349.31 C 881.525 1363.54 882.883 1443.76 877.284 1453.2 C 874.098 1458.57 868.189 1460.4 862.525 1461.95 C 857.081 1462.11 849.657 1463.07 845.533 1459.58 C 840.33 1445.51 846.362 1446.9 856.798 1443.65 C 861.737 1442.12 859.728 1427.24 860.175 1422.9 C 862.144 1403.82 856.427 1366.44 860.89 1349.27 z"/>
<path transform="translate(0,0)" fill="rgb(0,0,0)" d="M 748.794 1347.18 C 761.189 1347.04 761.644 1355.61 759.375 1365.22 C 756.527 1367.81 752.516 1367.52 748.263 1367.66 C 717.47 1368.68 740.387 1415.33 727.891 1429.68 C 724.189 1431.8 719.827 1431.09 715.337 1430.99 C 713.584 1429.9 711.929 1429.41 711.71 1427.15 C 710.708 1416.8 709.507 1355.51 712.474 1350.29 C 717.38 1348.73 722.819 1348.76 727.771 1350.11 C 728.793 1352 729.199 1352.85 729.91 1354.82 L 730.527 1356.56 C 737.757 1351.58 740.124 1349.42 748.794 1347.18 z"/>
<path transform="translate(0,0)" fill="rgb(0,0,0)" d="M 861.917 1318.35 C 866.899 1317.97 872.385 1317.04 876.972 1318.53 C 882.019 1322.72 881.748 1332.13 877.857 1336.93 C 870.563 1337.42 867.053 1337.39 859.748 1336.92 C 859.583 1335.45 859.451 1333.98 859.351 1332.5 C 858.913 1326.35 858.013 1322.82 861.917 1318.35 z"/>
</svg>