<svg version="1.1" xmlns="http://www.w3.org/2000/svg" style="display: block;" viewBox="0 0 2048 2048" width="1024" height="1024" preserveAspectRatio="none">
<path transform="translate(0,0)" fill="rgb(230,230,230)" d="M 0 0 L 2048 0 L 2048 2048 L 0 2048 L 0 0 z"/>
<path transform="translate(0,0)" fill="rgb(0,0,0)" d="M 700.99 848.766 C 678.05 848.685 642.965 855.55 642.515 823.262 C 641.704 772.141 641.944 720.896 642.31 669.763 C 642.362 662.534 645.639 656.25 651.034 651.516 C 661.099 642.687 678.454 644.968 691.474 644.954 L 739.383 644.927 L 794.181 644.95 C 806.758 644.964 830.835 641.945 838.502 654.025 C 847.877 668.795 843.3 694.029 844.703 711.993 C 931.303 713.118 1019.08 712.385 1105.79 712.406 L 1174.78 712.323 C 1185.54 712.243 1235.21 706.989 1232.11 724.803 C 1229.38 740.463 1197.05 735.795 1184.49 735.742 L 1114.8 735.597 C 1025.81 735.472 933.569 734.222 844.817 735.691 C 844.416 753.253 844.293 770.819 844.447 788.385 C 845.098 846.902 847.167 849.156 787.644 848.878 C 766.438 848.623 745.229 848.641 724.024 848.933 C 723.933 887.942 723.357 928.147 724.133 967.063 C 740.962 971.652 753.008 978.217 762.125 994.2 C 769.913 1007.81 771.756 1024.03 767.221 1039.05 C 763.021 1053.83 752.913 1066.23 739.277 1073.32 C 734.131 1076 729.61 1077.46 724.065 1079.03 C 723.952 1116.68 725.04 1161.97 723.514 1198.92 C 756.721 1199.12 789.93 1199.12 823.137 1198.94 C 822.664 1184.11 823.81 1169.43 822.794 1154.61 C 821.431 1152.47 819.891 1152.77 816.61 1151.86 C 803.461 1151.69 787.828 1140.59 785.614 1127.15 C 783.92 1116.86 784.382 1103.27 784.326 1092.69 L 784.178 1038.76 L 783.993 955.603 C 783.944 926.172 775.183 880.875 817.379 879.351 C 838.612 878.584 859.951 879.059 881.209 879.169 C 880.558 840.843 874.183 807.138 926.541 808.294 C 966.246 809.17 1007.31 806.717 1046.95 809.496 C 1071.79 811.315 1082.47 854.663 1102.05 870.582 C 1120.1 872.148 1146.07 871.421 1164.84 871.418 L 1265.4 871.483 C 1319.36 871.343 1356.19 861.778 1350.26 930.503 C 1349.68 937.161 1350.09 948.446 1350.14 955.528 C 1371.4 956.17 1407.41 950.202 1422.85 965.924 C 1428.85 972.033 1432.39 980.313 1432 988.944 C 1431.47 1000.34 1364.41 1163.38 1353.8 1185.97 C 1351.46 1190.95 1347.91 1198.59 1343.64 1202 C 1330.21 1212.74 1307.32 1208.8 1291.15 1209.3 C 1291.41 1243.21 1293.1 1278.85 1289.73 1312.33 C 1288.69 1322.69 1272.63 1335.37 1262.46 1335.82 C 1199.71 1338.54 1135.08 1335.46 1072.36 1336.38 C 1067.43 1352.6 1058.95 1364.86 1043.72 1372.88 C 1030.26 1379.81 1014.55 1380.93 1000.25 1375.98 C 980.169 1369.01 970.429 1356 963.757 1336.8 L 887.982 1336.47 C 874.262 1336.4 857.467 1335.87 843.948 1336.44 C 844.062 1358.17 850.558 1398.23 818.948 1400.93 C 812.181 1401.51 804.552 1401.29 797.713 1401.29 L 707.332 1401.17 C 692.407 1401.18 677.006 1401.65 662.164 1400.53 C 653.805 1399.65 642.765 1388.31 642.549 1380.03 C 641.214 1328.96 642.259 1277.68 641.854 1226.56 C 641.581 1192.06 677.867 1199.43 701.044 1198.97 C 701.024 1159.36 701.369 1119.12 700.824 1079.56 C 667.029 1069.53 647.799 1040.19 658.237 1005.54 C 662.376 991.421 672.031 979.567 685.02 972.656 C 689.858 970.073 695.725 968.09 700.94 966.466 L 700.99 848.766 z"/>
<path transform="translate(0,0)" fill="rgb(87,152,120)" d="M 816.61 1151.86 C 836.54 1153.58 860.771 1152.58 881.192 1152.93 C 881.276 1161.32 880.894 1171.02 882.301 1179.22 C 888.282 1214.06 921.101 1209.19 947.358 1209.22 L 1008.25 1209.21 L 1178.08 1209.14 C 1205.88 1209.13 1241.91 1208.11 1269.05 1209.35 L 1269.17 1272.67 C 1269.19 1285.04 1273.88 1313.35 1257.25 1313.65 C 1234.87 1314.05 1212.38 1313.69 1189.98 1313.53 L 1073.76 1313.4 C 1068.68 1295.86 1061.5 1283 1044.59 1273.75 C 1031.29 1266.52 1015.6 1265.05 1001.19 1269.7 C 986.829 1274.3 974.973 1284.58 968.382 1298.14 C 966.038 1303.08 964.623 1308.05 963.275 1313.32 C 924.208 1313.52 883.253 1313.85 844.242 1313.01 C 844.029 1295.36 844.009 1277.71 844.183 1260.06 C 844.384 1235.01 850.881 1209.44 823.137 1198.94 C 822.664 1184.11 823.81 1169.43 822.794 1154.61 C 821.431 1152.47 819.891 1152.77 816.61 1151.86 z"/>
<path transform="translate(0,0)" fill="rgb(100,168,213)" d="M 1013.22 978.474 L 1289.25 978.623 C 1321.5 978.573 1353.76 978.378 1386.01 978.612 C 1394.98 978.677 1404.11 977.032 1408.83 985.953 C 1409.03 989.572 1407.85 993.769 1406.51 997.146 C 1385.48 1050.32 1363.14 1102.98 1342.02 1156.12 C 1338.47 1165.05 1335.04 1174.43 1329.95 1182.57 C 1327.71 1186.15 1325.81 1186.05 1322.17 1186.68 L 1070.3 1186.61 C 1022.07 1186.6 969.858 1187.89 922.082 1186.51 C 932.379 1161.4 998.894 986.816 1004.75 980.674 C 1007.01 978.309 1010.17 978.587 1013.22 978.474 z"/>
<path transform="translate(0,0)" fill="rgb(234,105,102)" d="M 911.558 831.088 C 945.058 830.158 979.195 831.538 1012.77 831.013 C 1023.51 830.845 1034.88 830.84 1045.6 831.424 C 1059.99 846.144 1072.8 879.156 1088.3 889.574 C 1097.81 895.968 1140.11 894.174 1153.76 894.176 L 1259.66 893.996 C 1277.38 893.942 1295.47 893.505 1313.17 894.24 C 1326.77 894.805 1327.19 901.946 1327.21 913.642 C 1327.24 927.448 1327.13 941.467 1327.04 955.373 L 1109.53 955.54 C 1087.9 955.57 1009.47 952.387 994.959 960.082 C 990.621 962.382 986.345 966.285 983.865 970.531 C 978.756 979.275 975.244 989.701 971.407 999.101 C 963.527 1018.45 955.826 1037.87 948.302 1057.36 C 934.839 1091.92 916.425 1134.64 905.226 1168.81 C 902.614 1090.84 904.12 1009.23 904.02 930.996 L 903.888 870.169 C 903.871 860.485 903.577 849.063 904.583 839.359 C 905.013 835.208 908.274 833.334 911.558 831.088 z"/>
<path transform="translate(0,0)" fill="rgb(100,168,213)" d="M 665.243 668.062 C 690.533 666.643 723.629 668.318 749.76 667.806 C 762.48 667.556 810.457 667.311 819.906 669.435 C 821.725 673.05 821.956 812.403 820.532 825.87 C 803.751 826.783 780.508 826.066 763.294 826.092 C 730.581 826.325 697.867 826.245 665.156 825.852 C 664.558 804.564 665.031 780.799 665.032 759.298 C 664.927 728.886 664.997 698.473 665.243 668.062 z"/>
<path transform="translate(0,0)" fill="rgb(247,179,73)" d="M 665.631 1222.38 C 684.281 1221.5 705.488 1221.95 724.256 1221.97 L 821.099 1222.04 L 821.171 1324.46 C 821.191 1337.36 821.934 1367 820.433 1378.25 C 772.81 1378.59 712.104 1379.62 665.072 1377.86 C 663.995 1343.51 665.346 1307.32 664.813 1272.82 C 664.701 1265.52 664.301 1226.77 665.631 1222.38 z"/>
<path transform="translate(0,0)" fill="rgb(87,152,120)" d="M 874.505 901.476 C 877.452 901.376 877.429 901.277 880.231 902.058 C 881.711 904.815 881.733 1107.43 881.659 1129.99 C 860.151 1129.95 837.667 1130.24 816.246 1129.44 C 807.923 1126.76 807.106 1121.68 807.078 1113.74 C 806.85 1049.28 806.922 984.786 806.96 920.321 C 806.963 915.723 807.896 909.885 808.978 905.449 C 816.878 899.417 860.839 901.708 874.505 901.476 z"/>
<path transform="translate(0,0)" fill="rgb(100,168,213)" d="M 706.767 989.329 C 725.253 986.277 742.744 998.699 745.953 1017.16 C 749.162 1035.62 736.89 1053.21 718.458 1056.58 C 699.803 1059.99 681.947 1047.53 678.699 1028.85 C 675.451 1010.17 688.056 992.418 706.767 989.329 z"/>
<path transform="translate(0,0)" fill="rgb(234,105,102)" d="M 1013.06 1290.04 C 1030.88 1287.24 1047.66 1299.25 1050.74 1317.03 C 1053.83 1334.8 1042.1 1351.77 1024.38 1355.15 C 1012.65 1357.39 1000.63 1353.13 992.93 1344 C 985.229 1334.88 983.046 1322.32 987.218 1311.13 C 991.391 1299.95 1001.27 1291.88 1013.06 1290.04 z"/>
<path transform="translate(0,0)" fill="rgb(0,0,0)" d="M 1423.03 382.151 C 1428.63 381.835 1439.68 380.485 1444.25 383.247 C 1447.39 390.175 1446.29 421.732 1446.36 431.533 C 1452.28 425.487 1458.04 421.556 1466.56 419.848 C 1475.87 417.956 1485.54 420.07 1493.21 425.674 C 1516.96 443.106 1514.27 487.085 1498.36 509.318 C 1489.46 518.512 1475.39 523.887 1462.78 520.347 C 1456.48 518.578 1451.82 514.519 1445.57 512.233 C 1444.72 513.747 1442.59 518.104 1441.11 518.309 C 1435.19 519.131 1420.7 522.037 1420.55 513.111 C 1419.89 471.421 1419.7 429.815 1420.12 388.156 C 1420.15 385.148 1421.35 384.289 1423.03 382.151 z"/>
<path transform="translate(0,0)" fill="rgb(230,230,230)" d="M 1458.73 443.082 C 1468.69 442.225 1477.3 443.257 1481.1 453.779 C 1486.24 467.972 1485.27 491.722 1469.37 498.179 C 1444.29 502.1 1443.65 473.131 1447.85 456.016 C 1449.48 449.378 1452.88 446.183 1458.73 443.082 z"/>
<path transform="translate(0,0)" fill="rgb(0,0,0)" d="M 554.578 391.146 L 556.418 390.947 C 561.801 390.407 575.086 390.471 580.872 390.534 C 597.963 390.831 619.56 387.881 633.413 400.183 C 649.975 414.892 649.587 447.794 634.302 463.293 C 623.725 474.018 612.964 475.795 598.783 476.346 C 593.2 476.764 585.644 476.724 579.901 476.864 C 579.569 489.457 581.524 501.688 578.906 513.76 C 578.627 522.276 553.093 520.528 553.109 515.982 C 553.179 496.075 548.227 403.709 554.578 391.146 z"/>
<path transform="translate(0,0)" fill="rgb(230,230,230)" d="M 580.088 413.252 C 590.078 412.896 601.049 411.53 609.998 417.063 C 621.395 424.11 618.336 438.93 611.734 448.332 C 602.369 455.062 591.45 453.307 580.04 452.971 C 579.879 439.732 579.895 426.491 580.088 413.252 z"/>
<path transform="translate(0,0)" fill="rgb(0,0,0)" d="M 1258.03 441.834 C 1258.17 432.698 1255.86 397.549 1260.34 392.11 C 1266.82 389.741 1279.66 388.518 1284.7 394.015 C 1286.53 411.514 1284.74 443.167 1285.34 461.853 C 1285.64 470.867 1285.93 510.624 1284.78 516.595 C 1281.88 519.308 1282.84 518.461 1278.24 519.225 C 1272.94 519.286 1264.82 519.856 1260.29 517.904 C 1256.45 511.925 1257.87 475.128 1257.9 465.258 C 1243.16 465.015 1228.43 465.011 1213.7 465.247 C 1213.1 475.111 1215 513.077 1210.97 517.771 C 1205.55 520.047 1191.19 520.595 1186.77 515.743 C 1185.4 505.398 1184.74 401.088 1186.7 393.445 C 1189.16 390.572 1188.32 391.479 1192.8 390.454 C 1198.33 390.334 1207.34 389.577 1211.9 392.131 C 1214.76 398.951 1213.66 432.159 1213.6 441.649 C 1228.41 442.037 1243.22 442.099 1258.03 441.834 z"/>
<path transform="translate(0,0)" fill="rgb(0,0,0)" d="M 766.072 420.242 C 790.738 418.269 814.659 425.27 820.722 451.782 C 827.664 482.138 819.882 512.03 786.797 520.123 C 760.849 523.852 735.03 515.211 729.214 487.114 C 722.9 456.608 732.149 426.615 766.072 420.242 z"/>
<path transform="translate(0,0)" fill="rgb(230,230,230)" d="M 768.846 442.129 C 794.388 439.147 798.786 459.685 794.92 481.425 C 793.455 489.66 789.196 494.626 782.052 498.715 C 754.562 500.976 751.663 479.787 755.865 456.974 C 757.19 449.777 762.509 445.304 768.846 442.129 z"/>
<path transform="translate(0,0)" fill="rgb(0,0,0)" d="M 922.848 420.324 C 957.476 417.438 977.449 440.362 970.118 473.94 C 961.63 483.114 923.701 473.167 912.568 479.54 C 908.736 486.649 916.912 495.037 922.976 497.978 C 936.188 504.388 952.736 498.217 965.528 493.895 C 967.626 497.864 969.197 507.637 965.961 511.171 C 953.088 525.163 919.089 523.537 903.984 514.149 C 880.528 499.571 879.544 457.279 893.989 435.98 C 900.9 425.791 911.103 422.106 922.848 420.324 z"/>
<path transform="translate(0,0)" fill="rgb(230,230,230)" d="M 925.01 440.177 C 935.507 440.046 951.522 446.196 945.741 458.656 C 941.685 460.972 941.655 460.142 936.25 460.223 L 911.2 460.263 C 912.762 449.246 913.906 443.771 925.01 440.177 z"/>
<path transform="translate(0,0)" fill="rgb(0,0,0)" d="M 1313.92 422.248 C 1318.52 422.004 1330.44 421.267 1333.11 422.563 C 1345.9 436.066 1331.7 474.823 1339.61 492.537 C 1343.35 500.922 1356.45 499.989 1361.54 496.304 C 1378.9 482.803 1365.52 447.732 1370.39 428.489 C 1372.62 419.675 1387.64 420.536 1394.13 422.88 C 1398.56 427.502 1397.04 450.865 1396.94 458.5 C 1396.96 468.892 1398.03 508.083 1396.37 515.652 C 1392.34 520.656 1379.77 520.669 1374.6 517.952 C 1372.06 514.721 1371.9 511.807 1371.05 507.671 C 1356.26 522.687 1338.31 526.436 1320.01 512.98 C 1313.56 508.232 1311.16 496.529 1311.11 488.688 C 1310.98 467.729 1309.53 445.641 1311.69 424.844 C 1312.44 423.979 1313.18 423.113 1313.92 422.248 z"/>
<path transform="translate(0,0)" fill="rgb(0,0,0)" d="M 1085.49 396.344 C 1092.55 396.248 1096.81 396.746 1103.8 397.544 C 1104.39 405.252 1104.17 414.652 1104.2 422.508 C 1112.07 422.577 1119.95 422.722 1127.83 422.943 C 1129.15 446.889 1126.75 444.544 1104.57 443.883 C 1104.49 456.037 1102.62 488.419 1108.04 496.847 C 1113.22 500.11 1121.98 497.558 1128.13 496.459 C 1128.81 502.908 1129.17 509.47 1127.84 515.831 C 1112.29 525.871 1079.88 522.838 1079.03 498.547 C 1078.4 480.367 1078.8 462.243 1078.83 444.038 C 1074.43 443.771 1070.03 443.47 1065.63 443.135 C 1064.44 436.92 1062.36 428.908 1066.9 424.096 C 1070.77 422.105 1074.47 422.752 1078.97 422.881 C 1078.88 416.878 1077.99 405.711 1079.64 400.068 C 1080.45 397.319 1082.97 397.123 1085.49 396.344 z"/>
<path transform="translate(0,0)" fill="rgb(0,0,0)" d="M 1284.69 687.557 C 1304.85 683.375 1324.56 696.368 1328.66 716.536 C 1332.76 736.705 1319.69 756.366 1299.51 760.388 C 1279.44 764.388 1259.91 751.406 1255.83 731.35 C 1251.75 711.294 1264.65 691.715 1284.69 687.557 z"/>
<path transform="translate(0,0)" fill="rgb(230,230,230)" d="M 1285.88 711.649 C 1290.28 709.504 1295.5 709.892 1299.53 712.665 C 1303.57 715.438 1305.8 720.167 1305.37 725.045 C 1304.95 729.922 1301.93 734.194 1297.48 736.228 C 1290.71 739.318 1282.72 736.393 1279.54 729.665 C 1276.37 722.938 1279.19 714.908 1285.88 711.649 z"/>
<path transform="translate(0,0)" fill="rgb(0,0,0)" d="M 1021.55 420.233 C 1037.93 419.509 1066.96 420.978 1056.96 445.472 C 1052.6 456.161 1034.59 436.177 1021.99 443.192 C 1007.86 451.058 1009.28 476.845 1014.67 489.713 C 1025.09 510.989 1048.25 490.256 1058.4 493.262 C 1058.71 498.462 1059.58 507.65 1056.76 511.832 C 1053.31 516.81 1046.31 518.595 1040.8 519.837 C 1014.65 525.735 990.523 514.566 985.659 486.308 C 982.879 470.157 983.214 450.692 992.89 436.549 C 1000.19 425.875 1009.36 422.303 1021.55 420.233 z"/>
<path transform="translate(0,0)" fill="rgb(0,0,0)" d="M 845.108 422.265 C 849.157 422.09 866.079 420.195 866.275 425.972 C 867.423 459.724 867.219 494.187 866.865 528.041 C 866.715 542.442 858.708 550.613 845.596 554.123 C 840.369 554.31 833.591 554.728 828.599 553.631 C 821.369 552.044 823.083 539.102 825.002 533.941 C 828.104 531.075 835.092 531.636 840.24 531.314 C 841.627 520.473 840.647 507.862 840.85 496.71 C 841.274 473.475 839.488 449.622 841.175 426.428 C 841.377 423.641 843.033 423.288 845.108 422.265 z"/>
<path transform="translate(0,0)" fill="rgb(0,0,0)" d="M 687.155 434.683 C 693.668 427.139 711.015 413.039 720.887 424.424 C 724.822 428.962 722.615 439.276 721.752 445.077 C 692.251 443.818 688.739 449.306 688.773 477.547 C 688.689 485.408 690.131 511.951 687.444 517.227 C 683.451 520.392 666.469 520.921 662.808 516.975 C 659.924 502.348 661.469 443.766 662.51 424.899 C 662.618 422.936 664.72 422.24 666.213 421.468 L 672.296 421.233 C 685.446 420.8 687.036 421.333 687.155 434.683 z"/>
<path transform="translate(0,0)" fill="rgb(0,0,0)" d="M 702.736 1549.34 C 710.93 1547.35 719.56 1549.96 725.279 1556.15 C 730.997 1562.35 732.907 1571.16 730.266 1579.17 C 727.626 1587.18 720.85 1593.12 712.567 1594.7 C 700.194 1597.06 688.197 1589.13 685.529 1576.82 C 682.862 1564.51 690.497 1552.32 702.736 1549.34 z"/>
<path transform="translate(0,0)" fill="rgb(230,230,230)" d="M 703.524 1554.39 C 709.958 1552.64 716.834 1554.56 721.436 1559.38 C 726.038 1564.21 727.626 1571.16 725.571 1577.51 C 723.517 1583.85 718.151 1588.56 711.595 1589.77 C 702.021 1591.54 692.756 1585.44 690.591 1575.95 C 688.426 1566.46 694.131 1556.95 703.524 1554.39 z"/>
<path transform="translate(0,0)" fill="rgb(0,0,0)" d="M 705.963 1567.46 C 708.697 1565.99 712.11 1566.97 713.638 1569.68 C 715.166 1572.38 714.246 1575.81 711.57 1577.39 C 709.793 1578.44 707.589 1578.45 705.806 1577.41 C 704.023 1576.37 702.939 1574.45 702.972 1572.39 C 703.004 1570.33 704.148 1568.44 705.963 1567.46 z"/>
<path transform="translate(0,0)" fill="rgb(0,0,0)" d="M 1383.13 712.519 C 1392.44 712.086 1402.35 710.661 1410.17 716.437 C 1421.53 724.828 1410.49 733.992 1401.2 735.985 C 1395.89 737.123 1389.93 736.5 1384.68 736.284 C 1378.07 736.391 1359.61 737.776 1356.88 732.806 C 1343.84 709.113 1374.38 712.471 1383.13 712.519 z"/>
<path transform="translate(0,0)" fill="rgb(0,0,0)" d="M 1237.96 762.999 C 1277.53 761.792 1231.5 803.088 1220.94 810.195 C 1215.26 810.622 1211.23 810.312 1206.85 806.411 C 1200.33 793.981 1228.58 768.856 1237.96 762.999 z"/>
<path transform="translate(0,0)" fill="rgb(0,0,0)" d="M 1364.04 637.872 C 1402.23 637.984 1356.97 679.298 1346.46 685.601 C 1341.22 686.01 1336.11 685.268 1332.47 681.209 C 1327.18 668.426 1354.14 643.926 1364.04 637.872 z"/>
<path transform="translate(0,0)" fill="rgb(0,0,0)" d="M 1338.92 762.941 C 1339.91 762.848 1343.43 762.547 1344.45 762.821 C 1354.77 766.671 1366.08 779.712 1373.42 788.097 C 1381.24 797.035 1380.78 805.07 1370.46 810.632 C 1369.62 810.655 1368.78 810.653 1367.94 810.624 C 1361 810.328 1344.21 793.057 1338.85 787.316 C 1330 777.827 1328.89 771.01 1338.92 762.941 z"/>
<path transform="translate(0,0)" fill="rgb(0,0,0)" d="M 1216.29 636.935 C 1224.26 637.801 1230.67 645.356 1236.21 650.86 C 1246.02 660.602 1263.67 676.208 1243.49 685.53 C 1234.43 684.856 1227.88 676.743 1221.41 670.736 C 1211.22 661.282 1196.18 645.706 1216.29 636.935 z"/>
<path transform="translate(0,0)" fill="rgb(0,0,0)" d="M 1290.02 784.893 C 1306.11 784.749 1305.63 799.509 1305.26 812.055 C 1304.93 823.443 1306.74 832.397 1296.28 839.123 C 1278.56 839.702 1280.17 824.178 1280.31 810.751 C 1280.42 799.901 1279.51 790.6 1290.02 784.893 z"/>
<path transform="translate(0,0)" fill="rgb(0,0,0)" d="M 1287.91 608.984 C 1305.74 607.229 1305.48 621.676 1305.06 635.724 C 1304.74 646.681 1306.44 656.224 1296.32 662.591 C 1279.64 664.324 1279.8 648.018 1280.31 635.898 C 1280.76 625.001 1278.69 615.998 1287.91 608.984 z"/>
<path transform="translate(0,0)" fill="rgb(0,0,0)" d="M 1083.1 1625.25 C 1092.3 1625.02 1099.46 1627.2 1103.74 1636.1 C 1106.18 1641.27 1106.32 1647.24 1104.11 1652.53 C 1101.5 1658.76 1098.03 1660.71 1092.17 1663.27 C 1088.03 1663.34 1083.08 1663.77 1079.4 1661.9 C 1074.62 1659.43 1071.04 1655.12 1069.48 1649.97 C 1065.84 1637.87 1071.37 1628.87 1083.1 1625.25 z"/>
<path transform="translate(0,0)" fill="rgb(230,230,230)" d="M 1083.09 1629 C 1103.6 1629.32 1106.69 1651.3 1091.2 1658.95 C 1084.42 1659.12 1079.17 1659.04 1075.67 1652.43 C 1070.59 1642.84 1074.47 1634.05 1083.09 1629 z"/>
<path transform="translate(0,0)" fill="rgb(0,0,0)" d="M 873.977 1552.1 C 900.718 1551.29 905.02 1582.54 882.03 1590.56 C 855.612 1591 852.385 1561.65 873.977 1552.1 z"/>
<path transform="translate(0,0)" fill="rgb(230,230,230)" d="M 875.791 1556.15 C 895.959 1557.38 896.515 1580.44 881.246 1586.2 C 861.022 1586.26 860.277 1562.55 875.791 1556.15 z"/>
<path transform="translate(0,0)" fill="rgb(0,0,0)" d="M 932.962 1625.13 C 942.195 1624.83 949.102 1625.7 953.779 1634.91 C 956.4 1640.2 956.652 1646.35 954.473 1651.83 C 951.982 1658.06 948.316 1660.54 942.433 1663.03 C 925.568 1663.91 915.993 1655.88 920.686 1636.68 C 922.129 1630.77 927.426 1627.38 932.962 1625.13 z"/>
<path transform="translate(0,0)" fill="rgb(230,230,230)" d="M 933.925 1629.08 C 953.999 1628.58 956.262 1649.75 942.078 1658.93 C 920.484 1659.72 919.112 1638.08 933.925 1629.08 z"/>
<path transform="translate(0,0)" fill="rgb(0,0,0)" d="M 1157.41 1552.14 C 1166.84 1552.45 1173.49 1554.96 1177.11 1564.49 C 1179.2 1569.88 1178.87 1575.91 1176.2 1581.04 C 1173.36 1586.39 1169.62 1588.37 1164.13 1590.04 C 1146.41 1590.02 1137.53 1578.48 1144.91 1560.37 C 1146.9 1555.51 1152.43 1553.34 1157.41 1552.14 z"/>
<path transform="translate(0,0)" fill="rgb(230,230,230)" d="M 1158.8 1556.25 C 1166.27 1557.14 1170.37 1558.91 1172.83 1566.71 C 1174.18 1571.01 1173.66 1575.67 1171.39 1579.57 C 1168.84 1583.95 1166.39 1584.71 1161.73 1585.92 C 1154.42 1585.93 1150.3 1583.45 1148.12 1576.19 C 1146.68 1571.37 1147.35 1566.16 1149.96 1561.85 C 1152.4 1557.9 1154.66 1557.24 1158.8 1556.25 z"/>
<path transform="translate(0,0)" fill="rgb(0,0,0)" d="M 1273 1552.59 C 1281.37 1552.47 1288.35 1551.45 1295.97 1555.59 C 1307.9 1562.07 1306.06 1575.02 1299.44 1585.02 C 1291.45 1591.16 1282.83 1589.62 1272.94 1589.22 C 1273.14 1577.16 1272.99 1564.69 1273 1552.59 z"/>
<path transform="translate(0,0)" fill="rgb(230,230,230)" d="M 1277.65 1556.95 C 1296.4 1555.61 1304.92 1563.18 1296.08 1581.87 C 1289.5 1586 1285.76 1585.31 1277.97 1585.38 L 1277.65 1556.95 z"/>
<path transform="translate(0,0)" fill="rgb(0,0,0)" d="M 1221.34 1552.81 C 1231.86 1552.6 1258.84 1550.43 1246.19 1569.62 C 1246.09 1573.18 1247.42 1573.66 1249.94 1577.38 C 1250.51 1580.74 1249.76 1582.31 1248.84 1585.58 C 1242.47 1592.09 1229.89 1589.95 1221.26 1589.53 C 1221.15 1577.29 1221.17 1565.05 1221.34 1552.81 z"/>
<path transform="translate(0,0)" fill="rgb(230,230,230)" d="M 1226.13 1573.15 C 1232.06 1572.96 1240.04 1571.49 1244.28 1576.06 C 1245.68 1579.83 1245.16 1580.73 1244.35 1584.87 C 1238.38 1585.36 1232.13 1585.4 1226.12 1585.55 L 1226.13 1573.15 z"/>
<path transform="translate(0,0)" fill="rgb(230,230,230)" d="M 1226.4 1556.93 C 1232.93 1556.76 1239.86 1555.35 1244.02 1560.86 C 1244.42 1564.87 1244.22 1564.77 1242.65 1568.64 L 1226.32 1569.73 L 1226.4 1556.93 z"/>
<path transform="translate(0,0)" fill="rgb(0,0,0)" d="M 793.6 1552.98 C 796.915 1552.83 800.232 1552.73 803.549 1552.67 C 808.985 1552.6 816.03 1552.56 820.043 1556.46 C 822.113 1562.8 814.498 1568.48 820.197 1574.09 C 823.542 1577.38 823.031 1579.46 822.476 1583.69 C 814.209 1591.95 804.787 1589.93 793.801 1589.75 C 793.911 1577.64 793.674 1565.12 793.6 1552.98 z"/>
<path transform="translate(0,0)" fill="rgb(230,230,230)" d="M 798.68 1573.22 C 804.776 1573.08 812.941 1571.71 817.183 1576.43 C 818.433 1579.79 817.818 1580.77 816.866 1584.24 C 809.999 1585.63 805.882 1585.61 798.884 1585.8 L 798.68 1573.22 z"/>
<path transform="translate(0,0)" fill="rgb(230,230,230)" d="M 799.014 1556.96 C 800.638 1556.88 802.264 1556.81 803.889 1556.76 C 809.28 1556.56 811.195 1555.88 814.993 1559.41 C 816.445 1562.74 815.728 1564.69 815.162 1568.3 C 810.054 1569.45 804.201 1569.14 798.883 1569.14 L 799.014 1556.96 z"/>
<path transform="translate(0,0)" fill="rgb(0,0,0)" d="M 851.388 380.249 C 873.977 380.528 875.705 403.987 857.48 410.221 C 854.936 410.08 848.945 409.852 846.947 408.512 C 833.651 399.598 834.682 383.364 851.388 380.249 z"/>
<path transform="translate(0,0)" fill="rgb(0,0,0)" d="M 1185.91 1552.93 C 1195.46 1552.69 1205.67 1550.9 1212.75 1558.75 C 1215.43 1565.69 1211.15 1570.19 1206.06 1574.36 C 1208.7 1578.68 1212.21 1584.04 1212.95 1589.03 L 1211.24 1589.97 C 1209.82 1589.38 1209.13 1588.55 1207.87 1587.5 C 1205.12 1582.05 1200.21 1571.95 1192.82 1573.65 C 1187.48 1578.55 1191.89 1582.99 1189.65 1589.47 L 1187.52 1589.88 C 1183.75 1585.85 1185.75 1560.72 1185.91 1552.93 z"/>
<path transform="translate(0,0)" fill="rgb(230,230,230)" d="M 1190.52 1556.95 C 1197.27 1556.62 1203.76 1555.26 1208.25 1560.89 C 1209.02 1564.83 1208.5 1565.33 1206.85 1569.23 C 1200.35 1571.13 1197.1 1570.89 1190.44 1570.97 L 1190.52 1556.95 z"/>
<path transform="translate(0,0)" fill="rgb(0,0,0)" d="M 768.416 1551.59 C 771.308 1551.94 771.155 1551.93 773.783 1553.23 C 777.402 1558.03 786.808 1583.24 787.457 1589.45 L 785.316 1590.16 C 780.003 1586.67 782.602 1582.88 777.132 1579.85 C 775.228 1579.79 764.112 1579.41 763.572 1580.24 C 762.119 1582.45 761.134 1588.12 756.919 1589.89 L 755.596 1588.64 C 754.876 1584.42 766.184 1556.92 768.416 1551.59 z"/>
<path transform="translate(0,0)" fill="rgb(230,230,230)" d="M 770.332 1557.58 C 773.052 1560.1 777.952 1572.04 776.867 1575.73 L 774.247 1576.17 C 769.309 1576.18 768.906 1577.02 765.529 1574.8 C 764.263 1570.15 768.307 1562.62 770.332 1557.58 z"/>
<path transform="translate(0,0)" fill="rgb(0,0,0)" d="M 882.545 1624.85 C 891.365 1627.34 901.71 1647.67 906.913 1656.24 C 907.465 1647.38 906.012 1634.71 909.322 1626.58 L 910.595 1626.61 C 913.01 1630.75 913.432 1659.74 910.048 1664.2 C 901.789 1660.81 891.148 1640.16 886.012 1631.67 C 885.989 1636.9 886.648 1660.25 883.808 1663.29 C 880 1658.64 879.85 1630.04 882.545 1624.85 z"/>
<path transform="translate(0,0)" fill="rgb(0,0,0)" d="M 1345.47 1552.08 C 1346.74 1552.3 1350.06 1552.81 1350.9 1553.71 C 1358.54 1562 1365.09 1573.69 1372.06 1582.95 C 1371.98 1575.14 1370.34 1557.72 1374.5 1552.54 L 1375.9 1553 C 1378.55 1560.52 1376.4 1581.74 1375.7 1590.13 L 1371.99 1589.96 C 1367.45 1587.87 1353.65 1564.84 1349.91 1559.04 C 1350.08 1567.72 1350.91 1579.48 1348.15 1587.36 L 1346.91 1587.48 C 1343.91 1580.2 1344.41 1560.27 1345.47 1552.08 z"/>
<path transform="translate(0,0)" fill="rgb(0,0,0)" d="M 989.926 1625.09 C 996.921 1624.69 1008.56 1624.58 1011.45 1632.49 C 1006.87 1637.07 1000.94 1627.66 993.521 1628.82 C 975.167 1631.7 981.227 1667.16 1001.32 1657.01 C 1004.27 1655.52 1008.91 1651.13 1006.62 1647.66 C 1002.33 1647.44 1000.14 1647.89 997.292 1645.22 L 998.686 1643.66 C 1004.22 1641.83 1008.26 1641.21 1012.24 1646.15 C 1013.13 1651.8 1009.5 1658.64 1004.6 1661.26 C 981.381 1673.67 965.331 1636.91 989.926 1625.09 z"/>
<path transform="translate(0,0)" fill="rgb(0,0,0)" d="M 635.229 1553.35 C 640.984 1553.86 668.031 1565.08 669.022 1572.27 C 665.992 1576.92 647.266 1582.87 641.231 1585.2 C 637.017 1586.31 638.921 1586.6 635.291 1584.57 L 634.739 1582.57 C 636.931 1578.06 655.322 1572.8 660.743 1570.91 C 653.87 1568.21 640.436 1564.11 635.564 1559.03 C 634.514 1557.94 635.114 1555.25 635.229 1553.35 z"/>
<path transform="translate(0,0)" fill="rgb(0,0,0)" d="M 1311.86 1553 C 1320.57 1552.68 1327.91 1551.78 1336.18 1554.61 L 1335.43 1555.63 C 1329.39 1557.44 1322.92 1557.02 1316.55 1557.03 L 1316.31 1569.25 C 1322.53 1569.15 1327.61 1568.39 1333.16 1571 L 1332.84 1572.34 C 1327.68 1574.3 1322.96 1573.57 1317.35 1573.35 C 1315.44 1575.95 1316.13 1581.98 1316.17 1585.58 C 1321.86 1585.45 1331.42 1584.71 1336.3 1587.52 C 1332.21 1591 1316.76 1589.91 1311.01 1589.74 C 1311.36 1577.5 1311.64 1565.25 1311.86 1553 z"/>
<path transform="translate(0,0)" fill="rgb(0,0,0)" d="M 1004.73 1552.73 C 1010.1 1552.69 1026.38 1551.98 1030.12 1554.1 L 1029.67 1555.78 C 1027.01 1557.68 1013.96 1556.93 1009.77 1556.89 L 1009.77 1569.74 C 1015.43 1569.58 1022.05 1568.72 1026.86 1571.6 L 1026.14 1572.85 C 1020.66 1574.63 1015.87 1573.96 1010.05 1573.74 C 1009.48 1576.92 1009.51 1581.83 1009.41 1585.21 C 1015.23 1585.22 1024.14 1584.66 1029.12 1587.4 C 1024.98 1590.93 1010.63 1589.88 1004.8 1589.73 C 1004.92 1577.48 1004.76 1565 1004.73 1552.73 z"/>
<path transform="translate(0,0)" fill="rgb(0,0,0)" d="M 933.878 1551.22 C 936.228 1551.91 935.596 1551.63 937.588 1552.77 C 939.342 1557.39 938.778 1571.74 938.577 1577.51 C 938.18 1588.91 955.759 1586.74 957.481 1582.48 C 959.518 1577.45 957.274 1558.29 960.227 1552.62 L 962.322 1552.56 L 963.353 1555.16 C 963.642 1562.36 965.472 1583.72 960.063 1586.46 C 927.598 1602.89 932.09 1564.37 933.878 1551.22 z"/>
<path transform="translate(0,0)" fill="rgb(0,0,0)" d="M 1119.85 1625.19 C 1125.8 1624.81 1133.13 1625.08 1137.1 1630.07 L 1136.63 1631.77 C 1128.84 1631.29 1120.23 1627.01 1115.47 1634.7 C 1119.58 1643.83 1144.15 1642.23 1138.42 1655.81 C 1136.53 1660.3 1131.99 1662.09 1127.48 1663.4 C 1122.41 1663.31 1110.25 1662.48 1110.12 1655.96 C 1117.56 1654.81 1129.79 1665.48 1134.45 1653.28 C 1130.65 1643.94 1113.73 1647.28 1110.43 1635.34 C 1111.98 1629.7 1114.94 1628.14 1119.85 1625.19 z"/>
<path transform="translate(0,0)" fill="rgb(0,0,0)" d="M 836.794 1552.15 C 842.61 1551.91 852.908 1552.17 853.686 1559.45 C 848.827 1560.72 835.699 1549.56 832.454 1562.38 C 835.918 1572.03 855.479 1569.44 856.952 1581.03 C 854.85 1586.14 851.058 1588.26 846.168 1590.5 C 839.79 1590.36 830.874 1590.25 827.278 1584.33 L 827.854 1582.66 C 834.606 1582.83 845.332 1591.6 850.719 1581.18 C 847.181 1572.62 834.869 1575.35 827.329 1565.2 C 825.958 1558.08 830.815 1554.97 836.794 1552.15 z"/>
<path transform="translate(0,0)" fill="rgb(0,0,0)" d="M 1112.95 1552.83 C 1119.14 1552.72 1132.55 1551.82 1137.77 1554.27 L 1137.79 1555.8 C 1135.53 1557.1 1121.67 1556.96 1117.95 1557.06 L 1117.99 1570.42 C 1123.96 1570.5 1129.93 1570.65 1135.89 1570.85 C 1136.13 1572.01 1135.95 1572.64 1135.86 1573.87 C 1132.58 1575.73 1122.24 1574.84 1117.85 1574.7 C 1117.83 1579.81 1119.76 1588.01 1114.74 1589.63 L 1113.37 1588.44 C 1112.33 1578.5 1112.88 1563.19 1112.95 1552.83 z"/>
<path transform="translate(0,0)" fill="rgb(0,0,0)" d="M 1023.88 1625.35 C 1029.17 1628.31 1035.81 1657.5 1032.83 1663.08 C 1029.7 1659.55 1026.51 1643.72 1025.46 1638.82 L 1024.52 1638.95 C 1022.92 1644.58 1020.03 1658.72 1015.03 1660.96 L 1013.9 1659.98 C 1014.56 1656.03 1022.5 1628.6 1023.88 1625.35 z"/>
<path transform="translate(0,0)" fill="rgb(0,0,0)" d="M 1061.5 1551.82 C 1067.99 1553.73 1072.79 1564.85 1076.5 1571.34 C 1078.95 1566.98 1086.4 1552.99 1091.56 1552.99 C 1090.75 1557.42 1088.36 1560.24 1085.85 1564.06 L 1079.02 1575.76 C 1078.99 1580.49 1080 1584.06 1077.4 1588.11 L 1075.81 1588.08 C 1073.47 1584.34 1074.19 1580.52 1074.3 1575.89 C 1070.87 1570.33 1060.95 1557.25 1061.5 1551.82 z"/>
<path transform="translate(0,0)" fill="rgb(0,0,0)" d="M 968.17 1553.38 C 976.352 1551.71 990.006 1552.39 998.231 1554.24 L 998.783 1555.32 C 994.698 1557.11 991.077 1556.71 986.548 1556.77 L 986.632 1578.18 C 986.752 1581.7 987.379 1586.93 985.389 1589.65 L 983.734 1589.34 C 980.189 1584.76 981.437 1564.4 981.374 1556.9 C 974.752 1556.68 972.079 1559.13 968.17 1553.38 z"/>
<path transform="translate(0,0)" fill="rgb(0,0,0)" d="M 904.375 1551.21 L 907.304 1552.22 C 910.19 1556.21 909.018 1578.58 908.965 1585.39 C 914.276 1585.44 923.991 1584.16 928.176 1586.51 L 928.999 1589.66 C 919.964 1589.87 913.032 1589.76 904.007 1589.27 C 903.912 1579.91 903.239 1559.59 904.375 1551.21 z"/>
<path transform="translate(0,0)" fill="rgb(0,0,0)" d="M 1141.68 1626.44 C 1148.47 1626.26 1166.3 1625.08 1171.48 1627.79 L 1171.03 1629.24 C 1167.6 1631.02 1163.37 1630.86 1159.41 1631.1 L 1159.26 1653.25 C 1159.38 1657.01 1159.64 1658.6 1158.6 1662.27 L 1157.09 1663 L 1155.45 1661.87 C 1154.29 1655.38 1154.97 1638.25 1155.02 1630.55 C 1150.64 1630.5 1144.34 1631.21 1141.23 1628.98 L 1141.68 1626.44 z"/>
<path transform="translate(0,0)" fill="rgb(0,0,0)" d="M 1038.59 1551.2 C 1041.03 1552.09 1040.28 1551.63 1042.12 1553.31 C 1043.78 1560.34 1042.85 1577.21 1042.59 1585.22 C 1047.7 1585.1 1056.04 1584.36 1060.35 1586.05 L 1061.47 1588.71 C 1055.38 1589.43 1044.11 1589.3 1037.63 1589.41 C 1037.74 1580.52 1037.36 1558.84 1038.59 1551.2 z"/>
<path transform="translate(0,0)" fill="rgb(0,0,0)" d="M 1042.85 1625.2 C 1043.82 1625.54 1045.05 1626.19 1046.01 1626.64 C 1048.1 1633.05 1046.98 1651.29 1046.71 1658.96 C 1051.72 1658.87 1058.75 1657.78 1063.44 1658.92 C 1065.08 1659.32 1064.83 1660.16 1065.76 1662.42 C 1059.08 1663.09 1048.63 1662.88 1041.66 1662.94 C 1041.88 1653.16 1041.55 1634.07 1042.85 1625.2 z"/>
<path transform="translate(0,0)" fill="rgb(0,0,0)" d="M 1257.97 1552.18 L 1261.46 1553.09 C 1264.35 1557.05 1263.02 1583.2 1262.91 1589.93 L 1259.54 1589.18 C 1256.47 1585.66 1257.85 1558.64 1257.97 1552.18 z"/>
</svg>