<?xml version="1.0" encoding="UTF-8" standalone="no"?>
<!DOCTYPE svg PUBLIC "-//W3C//DTD SVG 1.1//EN" "http://www.w3.org/Graphics/SVG/1.1/DTD/svg11.dtd">
<svg width="100%" height="100%" viewBox="0 0 400 400" version="1.1" xmlns="http://www.w3.org/2000/svg" xmlns:xlink="http://www.w3.org/1999/xlink" xml:space="preserve" xmlns:serif="http://www.serif.com/" style="fill-rule:evenodd;clip-rule:evenodd;stroke-linecap:round;stroke-linejoin:round;stroke-miterlimit:1.5;">
    <g id="Artboard1" transform="matrix(0.390625,0,0,0.390625,0,0)">
        <rect x="0" y="0" width="1024" height="1024" style="fill:none;"/>
        <clipPath id="_clip1">
            <rect x="0" y="0" width="1024" height="1024"/>
        </clipPath>
        <g clip-path="url(#_clip1)">
            <g transform="matrix(4.3839,0,0,4.3839,-781.503892,-1433.556413)">
                <path d="M293,493C265.956,493 244,471.044 244,444C244,416.956 265.956,395 293,395C306.524,395 318.776,400.491 327.646,409.363" style="fill:none;stroke:#0e7490;stroke-width:8.18px;"/>
            </g>
            <g transform="matrix(1.643962,0,0,1.643962,21.297737,-633.880002)">
                <circle cx="293" cy="444" r="49" style="fill:none;stroke:#0e7490;stroke-width:21.8px;"/>
            </g>
            <g transform="matrix(3.580185,0,0,1.786625,-356.123976,-554.136232)">
                <path d="M240,409L240,477" style="fill:none;stroke:#0e7490;stroke-width:12.67px;"/>
            </g>
            <g transform="matrix(-1.643962,0,-0,-1.643962,984.801339,1657.880002)">
                <circle cx="293" cy="444" r="49" style="fill:none;stroke:#0e7490;stroke-width:21.8px;"/>
            </g>
            <g transform="matrix(-3.580185,0,0,-1.7603,1362.223053,1567.369353)">
                <path d="M240,409L240,477" style="fill:none;stroke:#0e7490;stroke-width:12.7px;"/>
            </g>
            <g transform="matrix(1.162457,-1.162457,1.162457,1.162457,-704.187444,-13.042006)">
                <circle cx="293" cy="444" r="49" style="fill:none;stroke:#0e7490;stroke-width:21.8px;"/>
            </g>
            <g transform="matrix(2.531573,-2.531573,2.082373,2.082373,-1249.664199,-24.763854)">
                <path d="M240,409L240,477" style="fill:none;stroke:#0e7490;stroke-width:10.93px;"/>
            </g>
            <g transform="matrix(-1.162457,1.162457,-1.162457,-1.162457,1710.28652,1038.832098)">
                <circle cx="293" cy="444" r="49" style="fill:none;stroke:#0e7490;stroke-width:21.8px;"/>
            </g>
            <g transform="matrix(-1.893107,1.893107,-1.893107,-1.893107,1898.198496,798.754187)">
                <circle cx="293" cy="444" r="49" style="fill:none;stroke:#0e7490;stroke-width:13.39px;"/>
            </g>
            <g transform="matrix(-2.531573,2.531573,-1.675347,-1.675347,2089.289468,884.08014)">
                <path d="M240,409L240,477" style="fill:none;stroke:#0e7490;stroke-width:11.81px;"/>
            </g>
            <g transform="matrix(0,-1.643962,1.643962,0,-636.56514,994.646847)">
                <circle cx="293" cy="444" r="49" style="fill:none;stroke:#0e7490;stroke-width:21.8px;"/>
            </g>
            <g transform="matrix(0,-3.580185,1.681326,0,-513.753854,1372.068561)">
                <path d="M240,409L240,477" style="fill:none;stroke:#0e7490;stroke-width:12.81px;"/>
            </g>
            <g transform="matrix(0,1.643962,-1.643962,0,1660.56514,31.284892)">
                <circle cx="293" cy="444" r="49" style="fill:none;stroke:#0e7490;stroke-width:21.8px;"/>
            </g>
            <g transform="matrix(0,3.580185,-3.175402,0,2148.83123,-346.278468)">
                <path d="M240,409L240,477" style="fill:none;stroke:#0e7490;stroke-width:10.59px;"/>
            </g>
            <g transform="matrix(-1.162457,-1.162457,1.162457,-1.162457,-22.887514,1720.132028)">
                <circle cx="293" cy="444" r="49" style="fill:none;stroke:#0e7490;stroke-width:21.8px;"/>
            </g>
            <g transform="matrix(-2.531573,-2.531573,2.082373,-2.082373,-34.609362,2265.608783)">
                <path d="M240,409L240,477" style="fill:none;stroke:#0e7490;stroke-width:10.93px;"/>
            </g>
            <g transform="matrix(1.162457,1.162457,-1.162457,1.162457,1028.98659,-694.341936)">
                <circle cx="293" cy="444" r="49" style="fill:none;stroke:#0e7490;stroke-width:21.8px;"/>
            </g>
            <g transform="matrix(2.531573,2.531573,-2.082373,2.082373,1040.708439,-1239.818691)">
                <path d="M240,409L240,477" style="fill:none;stroke:#0e7490;stroke-width:10.93px;"/>
            </g>
            <g transform="matrix(-0.284779,-0,0,-0.284779,752.258038,805.005025)">
                <circle cx="293" cy="444" r="49" style="fill:none;stroke:#0e7490;stroke-width:125.85px;"/>
            </g>
        </g>
    </g>
</svg>
